<mxfile host="app.diagrams.net" modified="2022-03-22T05:17:53.224Z" agent="5.0 (Windows NT 10.0; Win64; x64) AppleWebKit/537.36 (KHTML, like Gecko) Chrome/99.0.4844.74 Safari/537.36" etag="IGD5-y0lCdascNXOazEu" version="17.1.3" type="github">
  <diagram id="NOmlr5lAolDjstmVYD9O" name="Page-1">
    <mxGraphModel dx="1422" dy="798" grid="1" gridSize="10" guides="1" tooltips="1" connect="1" arrows="1" fold="1" page="1" pageScale="1" pageWidth="827" pageHeight="1169" math="0" shadow="0">
      <root>
        <mxCell id="0" />
        <mxCell id="1" parent="0" />
        <mxCell id="fuhfejlSOokYDg0X2GVB-5" value="proveedor&lt;br&gt;" style="shape=umlActor;verticalLabelPosition=bottom;verticalAlign=top;html=1;outlineConnect=0;fillColor=#dae8fc;strokeColor=#6c8ebf;" vertex="1" parent="1">
          <mxGeometry x="330" y="190" width="30" height="60" as="geometry" />
        </mxCell>
        <mxCell id="fuhfejlSOokYDg0X2GVB-2" value="cliente&lt;br&gt;" style="shape=umlActor;verticalLabelPosition=bottom;verticalAlign=top;html=1;outlineConnect=0;fillColor=#dae8fc;strokeColor=#6c8ebf;" vertex="1" parent="1">
          <mxGeometry x="70" y="190" width="30" height="60" as="geometry" />
        </mxCell>
        <mxCell id="fuhfejlSOokYDg0X2GVB-3" value="trabajador&lt;br&gt;" style="shape=umlActor;verticalLabelPosition=bottom;verticalAlign=top;html=1;outlineConnect=0;fillColor=#dae8fc;strokeColor=#6c8ebf;" vertex="1" parent="1">
          <mxGeometry x="150" y="190" width="30" height="60" as="geometry" />
        </mxCell>
        <mxCell id="fuhfejlSOokYDg0X2GVB-4" value="gerente&lt;br&gt;" style="shape=umlActor;verticalLabelPosition=bottom;verticalAlign=top;html=1;outlineConnect=0;fillColor=#dae8fc;strokeColor=#6c8ebf;" vertex="1" parent="1">
          <mxGeometry x="230" y="190" width="30" height="60" as="geometry" />
        </mxCell>
        <mxCell id="fuhfejlSOokYDg0X2GVB-6" value="Actores de Negocio&lt;br&gt;" style="text;strokeColor=none;fillColor=none;html=1;fontSize=24;fontStyle=1;verticalAlign=middle;align=center;" vertex="1" parent="1">
          <mxGeometry x="310" y="100" width="180" height="40" as="geometry" />
        </mxCell>
        <mxCell id="fuhfejlSOokYDg0X2GVB-8" value="MCUN&lt;br&gt;" style="text;strokeColor=none;fillColor=none;html=1;fontSize=24;fontStyle=1;verticalAlign=middle;align=center;fontColor=#FF3333;" vertex="1" parent="1">
          <mxGeometry x="350" y="20" width="100" height="40" as="geometry" />
        </mxCell>
        <mxCell id="fuhfejlSOokYDg0X2GVB-9" value="&amp;nbsp;Casos de uso de Negocio" style="text;strokeColor=none;fillColor=none;html=1;fontSize=24;fontStyle=1;verticalAlign=middle;align=center;fontColor=#000000;" vertex="1" parent="1">
          <mxGeometry x="278" y="320" width="150" height="40" as="geometry" />
        </mxCell>
        <mxCell id="fuhfejlSOokYDg0X2GVB-13" value="cun_gestionar_ventas" style="ellipse;whiteSpace=wrap;html=1;fontColor=#FF3333;" vertex="1" parent="1">
          <mxGeometry x="40" y="390" width="170" height="80" as="geometry" />
        </mxCell>
        <mxCell id="fuhfejlSOokYDg0X2GVB-17" value="cun_gestionar_compras&lt;br&gt;" style="ellipse;whiteSpace=wrap;html=1;fontColor=#FF3333;" vertex="1" parent="1">
          <mxGeometry x="250" y="390" width="170" height="80" as="geometry" />
        </mxCell>
        <mxCell id="fuhfejlSOokYDg0X2GVB-18" value="cun_gestionar_gerencia" style="ellipse;whiteSpace=wrap;html=1;fontColor=#FF3333;" vertex="1" parent="1">
          <mxGeometry x="460" y="390" width="170" height="80" as="geometry" />
        </mxCell>
        <mxCell id="fuhfejlSOokYDg0X2GVB-19" value="cun_gestionar_almacen" style="ellipse;whiteSpace=wrap;html=1;fontColor=#FF3333;" vertex="1" parent="1">
          <mxGeometry x="640" y="390" width="170" height="80" as="geometry" />
        </mxCell>
        <mxCell id="fuhfejlSOokYDg0X2GVB-20" value="Objetivos de Negocio&lt;br&gt;" style="text;strokeColor=none;fillColor=none;html=1;fontSize=24;fontStyle=1;verticalAlign=middle;align=center;fontColor=#000000;" vertex="1" parent="1">
          <mxGeometry x="320" y="520" width="100" height="50" as="geometry" />
        </mxCell>
        <mxCell id="fuhfejlSOokYDg0X2GVB-22" value="Ser una cadena de tiendas de comercio al detalle, más grande en américalatina" style="ellipse;shape=doubleEllipse;whiteSpace=wrap;html=1;fontColor=#000000;" vertex="1" parent="1">
          <mxGeometry x="180" y="590" width="150" height="150" as="geometry" />
        </mxCell>
        <mxCell id="fuhfejlSOokYDg0X2GVB-24" value="Ser parte del estilo de vida de millones de personas enfocándonos enbrindar una amplia oferta de productos y servicios que les sean útiles y prácticos." style="ellipse;shape=doubleEllipse;whiteSpace=wrap;html=1;fontColor=#000000;" vertex="1" parent="1">
          <mxGeometry x="370" y="590" width="210" height="165" as="geometry" />
        </mxCell>
      </root>
    </mxGraphModel>
  </diagram>
</mxfile>
